<svg xmlns="http://www.w3.org/2000/svg" viewBox="0 0 512 512" id="Sop">
  <defs>
    <linearGradient id="a" x1="303.53" x2="383.4" y1="109.45" y2="109.45" gradientUnits="userSpaceOnUse">
      <stop offset="0" stop-color="#cad3dd" class="stopColorcacfdd svgShape"></stop>
      <stop offset="1" stop-color="#eeeff1" class="stopColoreef0f1 svgShape"></stop>
    </linearGradient>
  </defs>
  <g style="isolation:isolate" fill="#000000" class="color000000 svgShape">
    <g fill="#000000" class="color000000 svgShape">
      <rect width="312.81" height="416.52" x="70.59" y="37.74" fill="#f5f5f5" class="colorf5f5f5 svgShape"></rect>
      <rect width="312.81" height="416.53" x="70.58" y="37.74" fill="#f5f5f5" class="colorf5f5f5 svgShape"></rect>
      <rect width="129.78" height="54.13" x="164.75" y="88.21" fill="#dee5ec" rx="15.43" class="colordee1ec svgShape"></rect>
      <path fill="#0078ff" d="M279.1,145.34H180.18a18.45,18.45,0,0,1-18.43-18.43V103.64a18.45,18.45,0,0,1,18.43-18.43H279.1a18.45,18.45,0,0,1,18.43,18.43v23.27A18.45,18.45,0,0,1,279.1,145.34ZM180.18,91.21a12.44,12.44,0,0,0-12.43,12.43v23.27a12.44,12.44,0,0,0,12.43,12.43H279.1a12.44,12.44,0,0,0,12.43-12.43V103.64A12.45,12.45,0,0,0,279.1,91.21Z" class="color5e6175 svgShape"></path>
      <rect width="129.78" height="54.13" x="164.75" y="176.99" fill="#a9b6c4" rx="15.43" class="colora9afc4 svgShape"></rect>
      <path fill="#0078ff" d="M279.1,234.12H180.18a18.45,18.45,0,0,1-18.43-18.43V192.42A18.45,18.45,0,0,1,180.18,174H279.1a18.45,18.45,0,0,1,18.43,18.43v23.27A18.45,18.45,0,0,1,279.1,234.12ZM180.18,180a12.44,12.44,0,0,0-12.43,12.43v23.27a12.44,12.44,0,0,0,12.43,12.43H279.1a12.44,12.44,0,0,0,12.43-12.43V192.42A12.45,12.45,0,0,0,279.1,180Z" class="color5e6175 svgShape"></path>
      <rect width="129.78" height="54.13" x="164.75" y="265.77" fill="#dee5ec" rx="15.43" class="colordee1ec svgShape"></rect>
      <rect width="129.78" height="54.13" x="164.75" y="354.55" fill="#a9b6c4" rx="15.43" class="colora9afc4 svgShape"></rect>
      <path fill="#0078ff" d="M279.1 322.9H180.18a18.45 18.45 0 01-18.43-18.43V281.2a18.45 18.45 0 0118.43-18.43H279.1a18.45 18.45 0 0118.43 18.43v23.27A18.45 18.45 0 01279.1 322.9zm-98.92-54.13a12.44 12.44 0 00-12.43 12.43v23.27a12.44 12.44 0 0012.43 12.43H279.1a12.44 12.44 0 0012.43-12.43V281.2a12.45 12.45 0 00-12.43-12.43zM279.1 411.68H180.18a18.45 18.45 0 01-18.43-18.43V370a18.45 18.45 0 0118.43-18.43H279.1A18.45 18.45 0 01297.53 370v23.27A18.45 18.45 0 01279.1 411.68zm-98.92-54.13A12.44 12.44 0 00167.75 370v23.27a12.44 12.44 0 0012.43 12.43H279.1a12.44 12.44 0 0012.43-12.43V370a12.45 12.45 0 00-12.43-12.43z" class="color5e6175 svgShape"></path>
      <path fill="#0e71e1" d="M151.21 209.23a46.16 46.16 0 01-46.09-46.1v-11a46.15 46.15 0 0146.09-46.09v18.34a27.78 27.78 0 00-27.75 27.75v11a27.78 27.78 0 0027.75 27.75zM305.38 195.68a46.14 46.14 0 0146.09 46.09v11a46.15 46.15 0 01-46.09 46.1V280.49a27.78 27.78 0 0027.75-27.75v-11A27.78 27.78 0 00305.38 214zM151.21 391.27a46.15 46.15 0 01-46.09-46.1v-11a46.15 46.15 0 0146.09-46.09v18.34a27.78 27.78 0 00-27.75 27.75v11a27.79 27.79 0 0027.75 27.76z" class="colore1830e svgShape"></path>
      <path fill="url(#a)" d="M383.4,37.74V181.15A79.84,79.84,0,0,1,335.07,37.74Z" style="mix-blend-mode:multiply"></path>
      <path fill="#0078ff" d="M386.4,457.26H67.59V34.74H386.4Zm-312.81-6H380.4V40.74H73.59Z" class="color5e6175 svgShape"></path>
      <circle cx="383.4" cy="101.29" r="63.55" fill="#f5f5f5" class="colorf5f5f5 svgShape"></circle>
      <path fill="#0078ff" d="M383.4,167.83A66.55,66.55,0,1,1,450,101.29,66.62,66.62,0,0,1,383.4,167.83Zm0-127.09A60.55,60.55,0,1,0,444,101.29,60.62,60.62,0,0,0,383.4,40.74Z" class="color5e6175 svgShape"></path>
      <path fill="#0e71e1" d="M409.44,101.29a10.27,10.27,0,0,1,8.82-10.16,36.76,36.76,0,0,0-8.64-15A10.25,10.25,0,0,1,392,66a36.15,36.15,0,0,0-17.27,0,10.25,10.25,0,0,1-17.58,10.15,36.28,36.28,0,0,0-8.63,15,10.25,10.25,0,0,1,0,20.3,36.68,36.68,0,0,0,8.64,15,10.25,10.25,0,0,1,17.58,10.15,36.07,36.07,0,0,0,17.28,0,10.24,10.24,0,0,1,17.57-10.14,36.27,36.27,0,0,0,8.64-15A10.24,10.24,0,0,1,409.44,101.29ZM381.51,116a14.82,14.82,0,1,1,14.73-22.11A14.8,14.8,0,0,1,381.51,116Z" class="colore1830e svgShape"></path>
      <rect width="6" height="17.78" x="443.48" y="156.65" fill="#0078ff" transform="rotate(-44.41 446.456 165.536)" class="color5e6175 svgShape"></rect>
      <rect width="6" height="17.79" x="455.62" y="135.81" fill="#0078ff" transform="rotate(-89.41 458.61 144.715)" class="color5e6175 svgShape"></rect>
      <rect width="17.78" height="6" x="417.58" y="174.74" fill="#0078ff" transform="rotate(-89.4 426.495 177.73)" class="color5e6175 svgShape"></rect>
      <path fill="#a9b6c4" d="M142.63,480.74h-6v-6h6Zm-16,0h-6v-6h6Zm-16,0h-6v-6h6Zm-16,0h-6v-6h6Zm-16,0h-6v-6h6Zm-16.87-1.82a28.29,28.29,0,0,1-5.93-3.14l3.43-4.93a21.49,21.49,0,0,0,4.64,2.46Zm-13.61-11.2a28.09,28.09,0,0,1-2.85-6.08l5.7-1.87a22,22,0,0,0,2.23,4.76Zm1.78-16.88h-6v-6h6Zm0-16h-6v-6h6Z" class="colora9afc4 svgShape"></path>
    </g>
  </g>
</svg>
